<?xml version="1.0" standalone="no"?>
<!DOCTYPE svg PUBLIC "-//W3C//DTD SVG 20010904//EN"
 "http://www.w3.org/TR/2001/REC-SVG-20010904/DTD/svg10.dtd">
<svg version="1.0" xmlns="http://www.w3.org/2000/svg"
 width="1024.000000pt" height="26.000000pt" viewBox="0 0 1024.000000 26.000000"
 preserveAspectRatio="xMidYMid meet">

<g transform="translate(0.000000,26.000000) scale(0.100000,-0.100000)"
fill="#0046B6" stroke="none">
<path d="M572 163 c2 -10 16 -21 33 -24 l30 -7 -32 -1 c-22 -1 -33 -6 -33 -15
0 -9 13 -16 33 -19 l32 -4 -32 -1 c-40 -2 -47 -32 -8 -32 14 0 25 -4 25 -10 0
-5 -11 -10 -25 -10 -40 0 -31 -27 11 -32 19 -2 37 0 40 4 7 12 54 10 54 -2 0
-5 12 -10 26 -10 35 0 26 21 -15 35 -47 15 -58 41 -34 74 38 51 143 52 143 1
0 -23 -38 -28 -57 -9 -7 7 -19 9 -29 5 -23 -9 -6 -26 38 -40 25 -9 34 -18 36
-38 6 -53 28 -30 41 42 l13 70 74 0 c41 0 74 -2 74 -4 0 -25 -16 -36 -56 -36
-32 0 -44 -4 -44 -15 0 -10 11 -15 35 -15 28 0 35 -4 35 -20 0 -17 -7 -20 -45
-20 -34 0 -45 -4 -45 -15 0 -13 11 -15 58 -13 l57 3 14 68 14 67 38 0 c35 0
39 -3 48 -38 6 -20 11 -43 11 -49 0 -7 4 -13 9 -13 5 0 13 21 17 48 8 42 12
47 37 50 24 3 28 0 23 -15 -7 -23 -25 -106 -26 -115 0 -5 6 -8 14 -8 8 0 34
32 58 70 41 68 45 71 78 68 33 -3 35 -6 42 -48 12 -75 18 -90 33 -90 14 0 19
11 30 70 12 64 15 70 42 70 28 0 28 -4 7 -109 l-7 -34 33 6 c18 4 41 7 51 7
11 0 19 7 19 15 0 9 -9 15 -25 15 -14 0 -25 5 -25 10 0 6 11 10 25 10 38 0 32
28 -7 33 l-33 4 33 1 c21 1 32 7 32 17 0 10 -11 15 -32 16 l-33 1 30 7 c17 3
31 14 33 24 3 16 -27 17 -508 17 -481 0 -511 -1 -508 -17z"/>
<path d="M1307 65 c-16 -34 -16 -35 3 -35 16 0 20 7 20 35 0 19 -1 35 -3 35
-2 0 -11 -16 -20 -35z"/>
<path d="M1067 60 c-11 -40 -8 -60 8 -60 16 0 18 19 6 60 l-7 25 -7 -25z"/>
</g>
</svg>
