<?xml version="1.0" encoding="UTF-8" standalone="no"?>
<svg
   xmlns:dc="http://purl.org/dc/elements/1.1/"
   xmlns:cc="http://creativecommons.org/ns#"
   xmlns:rdf="http://www.w3.org/1999/02/22-rdf-syntax-ns#"
   xmlns:svg="http://www.w3.org/2000/svg"
   xmlns="http://www.w3.org/2000/svg"
   xmlns:sodipodi="http://sodipodi.sourceforge.net/DTD/sodipodi-0.dtd"
   xmlns:inkscape="http://www.inkscape.org/namespaces/inkscape"
   version="1.1"
   id="svg2"
   xml:space="preserve"
   width="294.66666"
   height="138.66667"
   viewBox="0 0 294.66666 138.66667"
   sodipodi:docname="sesi.svg"
   inkscape:version="0.92.5 (2060ec1f9f, 2020-04-08)"><metadata
     id="metadata8"><rdf:RDF><cc:Work
         rdf:about=""><dc:format>image/svg+xml</dc:format><dc:type
           rdf:resource="http://purl.org/dc/dcmitype/StillImage" /></cc:Work></rdf:RDF></metadata><defs
     id="defs6" /><sodipodi:namedview
     pagecolor="#ffffff"
     bordercolor="#666666"
     borderopacity="1"
     objecttolerance="10"
     gridtolerance="10"
     guidetolerance="10"
     inkscape:pageopacity="0"
     inkscape:pageshadow="2"
     inkscape:window-width="1208"
     inkscape:window-height="656"
     id="namedview4"
     showgrid="false"
     inkscape:zoom="1.6459277"
     inkscape:cx="290.41374"
     inkscape:cy="69.333336"
     inkscape:window-x="72"
     inkscape:window-y="27"
     inkscape:window-maximized="1"
     inkscape:current-layer="g10" /><g
     id="g10"
     inkscape:groupmode="layer"
     inkscape:label="ink_ext_XXXXXX"
     transform="matrix(1.3333333,0,0,-1.3333333,0,138.66667)"><g
       id="g12"
       transform="matrix(0.11419287,0,0,0.16526443,-13.187417,-36.185682)"><path
         d="M 2049.86,840.844 H 126.949 V 220.258 H 2049.86 v 620.586"
         style="fill:#0047b6;fill-opacity:1;fill-rule:evenodd;stroke:none"
         id="path14"
         inkscape:connector-curvature="0" /><path
         d="M 126.945,326.188 H 257.57 V 309.844 H 126.945 Z m 0,104.558 H 257.57 v -16.34 H 126.945 Z m 0,108.453 H 257.57 V 522.863 H 126.945 Z m 0,107 H 257.57 V 629.84 H 126.945 Z m 0,104.239 H 257.57 V 734.094 H 126.945 v 16.344"
         style="fill:#ffffff;fill-opacity:1;fill-rule:evenodd;stroke:none"
         id="path16"
         inkscape:connector-curvature="0" /><path
         d="m 1919.3,326.188 h 130.63 V 309.844 H 1919.3 Z m 0,104.558 h 130.63 v -16.34 H 1919.3 Z m 0,108.453 h 130.63 V 522.863 H 1919.3 Z m 0,107 h 130.63 V 629.84 H 1919.3 Z m 0,104.239 h 130.63 V 734.094 H 1919.3 v 16.344"
         style="fill:#ffffff;fill-opacity:1;fill-rule:evenodd;stroke:none"
         id="path18"
         inkscape:connector-curvature="0" /><path
         d="m 738.109,614.586 c 31.336,111.641 -59.562,145.644 -155.164,145.644 -96.882,0 -199.539,-30.152 -227.984,-139.871 -10.586,-50.046 3.422,-92.39 45.875,-112.921 91.324,-44.27 189.172,-30.801 175.801,-93.676 -6.52,-30.797 -47.586,-46.196 -77.207,-46.196 -46.196,0 -73.141,23.739 -63.305,67.364 H 307.801 c -24.809,-125.75 63.523,-157.297 171.312,-157.297 107.153,0 213.227,46.301 233.973,143.824 26.523,125.121 -84.691,132.82 -158.156,152.707 -32.082,8.984 -70.789,19.895 -63.629,53.895 4.922,23.097 34.648,42.351 64.168,42.351 21.812,0 37.426,-5.137 46.301,-14.762 9.515,-9.625 12.402,-23.097 8.019,-41.062 z m 371.181,-327.227 19.14,89.832 H 903.863 l 20.852,98.164 h 206.605 l 19.03,89.825 H 943.746 l 20.317,95.601 h 224.567 l 19.14,89.828 H 854.883 l -98.488,-463.25 z m 520.02,327.227 c 31.33,111.641 -59.56,145.644 -155.16,145.644 -96.89,0 -199.54,-30.152 -227.99,-139.871 -10.59,-50.046 3.42,-92.39 45.88,-112.921 91.32,-44.27 189.16,-30.801 175.8,-93.676 -6.52,-30.797 -47.59,-46.196 -77.21,-46.196 -46.19,0 -73.15,23.739 -63.31,67.364 H 1199 c -24.8,-125.75 63.52,-157.297 171.31,-157.297 107.15,0 213.23,46.301 233.98,143.824 26.52,125.121 -84.7,132.82 -158.16,152.707 -32.08,8.984 -70.79,19.895 -63.63,53.895 4.92,23.097 34.65,42.351 64.16,42.351 21.82,0 37.43,-5.137 46.31,-14.762 9.52,-9.625 12.4,-23.097 8.02,-41.062 z m 145.32,-327.227 98.5,463.25 H 1744.8 l -98.48,-463.25 h 128.31"
         style="fill:#ffffff;fill-opacity:1;fill-rule:evenodd;stroke:none"
         id="path20"
         inkscape:connector-curvature="0" /><path
         d="M 4.58984,1034.57 H 2206.97 V 4.75391 H 4.58984 Z"
         style="fill:none;stroke:#ffffff;stroke-width:5.66930008;stroke-linecap:butt;stroke-linejoin:miter;stroke-miterlimit:22.92560005;stroke-dasharray:none;stroke-opacity:1"
         id="path22"
         inkscape:connector-curvature="0" /></g></g></svg>