<?xml version="1.0" encoding="UTF-8" standalone="no"?>
<svg
   xmlns:dc="http://purl.org/dc/elements/1.1/"
   xmlns:cc="http://creativecommons.org/ns#"
   xmlns:rdf="http://www.w3.org/1999/02/22-rdf-syntax-ns#"
   xmlns:svg="http://www.w3.org/2000/svg"
   xmlns="http://www.w3.org/2000/svg"
   xmlns:sodipodi="http://sodipodi.sourceforge.net/DTD/sodipodi-0.dtd"
   xmlns:inkscape="http://www.inkscape.org/namespaces/inkscape"
   version="1.1"
   id="svg2"
   xml:space="preserve"
   width="294.66666"
   height="138.66667"
   viewBox="0 0 294.66666 138.66667"
   sodipodi:docname="sesi.svg"
   inkscape:version="0.92.5 (2060ec1f9f, 2020-04-08)"><metadata
     id="metadata8"><rdf:RDF><cc:Work
         rdf:about=""><dc:format>image/svg+xml</dc:format><dc:type
           rdf:resource="http://purl.org/dc/dcmitype/StillImage" /></cc:Work></rdf:RDF></metadata><defs
     id="defs6" /><sodipodi:namedview
     pagecolor="#ffffff"
     bordercolor="#666666"
     borderopacity="1"
     objecttolerance="10"
     gridtolerance="10"
     guidetolerance="10"
     inkscape:pageopacity="0"
     inkscape:pageshadow="2"
     inkscape:window-width="1208"
     inkscape:window-height="656"
     id="namedview4"
     showgrid="false"
     inkscape:zoom="1.6459277"
     inkscape:cx="146.11821"
     inkscape:cy="69.333336"
     inkscape:window-x="72"
     inkscape:window-y="27"
     inkscape:window-maximized="1"
     inkscape:current-layer="g10" /><g
     id="g10"
     inkscape:groupmode="layer"
     inkscape:label="ink_ext_XXXXXX"
     transform="matrix(1.3333333,0,0,-1.3333333,0,138.66667)"><g
       id="g3725"
       transform="matrix(1,0,0,0.89745053,-0.4556701,2.1980793)"
       inkscape:export-xdpi="891.20599"
       inkscape:export-ydpi="891.20599"><path
         d="M 217.727,88.085593 H 3.1985546 V 16.990914 H 217.727 v 71.094679"
         style="fill:#0047b6;fill-opacity:1;fill-rule:evenodd;stroke:none;stroke-width:0.11305256"
         id="path14"
         inkscape:connector-curvature="0" /><path
         d="M 3.1981083,29.126314 H 17.771211 V 27.253936 H 3.1981083 Z m 0,11.978223 H 17.771211 v -1.87192 H 3.1981083 Z m 0,12.424436 H 17.771211 V 51.657512 H 3.1981083 Z m 0,12.25798 H 17.771211 V 63.912857 H 3.1981083 Z m 0,11.941678 H 17.771211 V 75.856253 H 3.1981083 v 1.872378"
         style="fill:#ffffff;fill-opacity:1;fill-rule:evenodd;stroke:none;stroke-width:0.11305256"
         id="path16"
         inkscape:connector-curvature="0" /><path
         d="m 203.16115,29.126314 h 14.57366 v -1.872378 h -14.57366 z m 0,11.978223 h 14.57366 v -1.87192 h -14.57366 z m 0,12.424436 h 14.57366 v -1.871461 h -14.57366 z m 0,12.25798 h 14.57366 v -1.874096 h -14.57366 z m 0,11.941678 h 14.57366 v -1.872378 h -14.57366 v 1.872378"
         style="fill:#ffffff;fill-opacity:1;fill-rule:evenodd;stroke:none;stroke-width:0.11305256"
         id="path18"
         inkscape:connector-curvature="0" /><path
         d="m 71.382265,62.16535 c 3.495983,12.789656 -6.645,16.685058 -17.310781,16.685058 -10.808584,0 -22.261453,-3.45423 -25.434903,-16.0237 -1.181021,-5.733298 0.381774,-10.58425 5.118018,-12.936293 10.188509,-5.071596 21.104864,-3.52858 19.613136,-10.731575 -0.7274,-3.528121 -5.308904,-5.29224 -8.613554,-5.29224 -5.15383,0 -8.159933,2.719554 -7.062585,7.717258 H 23.375203 c -2.767802,-14.40599 7.086907,-18.020032 19.112324,-18.020032 11.954462,0 23.788547,5.304268 26.103062,16.476558 2.959023,14.333931 -9.448502,15.215933 -17.644582,17.494199 -3.57921,1.029212 -7.897534,2.279182 -7.098733,6.174241 0.54912,2.646006 3.865484,4.851755 7.158866,4.851755 2.433443,0 4.17541,-0.588498 5.165544,-1.691143 1.061535,-1.102646 1.383622,-2.646006 0.894635,-4.704086 z M 112.79286,24.678042 114.9282,34.969246 H 89.874514 l 2.326342,11.245723 h 23.049764 l 2.12307,10.290402 H 94.324038 l 2.266654,10.952104 h 25.053688 l 2.13534,10.290746 H 84.410089 L 73.422332,24.678042 Z m 58.01573,37.487308 c 3.49531,12.789656 -6.64478,16.685058 -17.31034,16.685058 -10.80947,0 -22.26156,-3.45423 -25.43557,-16.0237 -1.18147,-5.733298 0.38155,-10.58425 5.11858,-12.936293 10.18806,-5.071596 21.10352,-3.52858 19.61302,-10.731575 -0.7274,-3.528121 -5.30935,-5.29224 -8.61389,-5.29224 -5.15316,0 -8.16093,2.719554 -7.06314,7.717258 H 122.8013 c -2.7668,-14.40599 7.08657,-18.020032 19.1121,-18.020032 11.95413,0 23.78888,5.304268 26.10385,16.476558 2.95868,14.333931 -9.44951,15.215933 -17.64503,17.494199 -3.57899,1.029212 -7.89765,2.279182 -7.09885,6.174241 0.5489,2.646006 3.86571,4.851755 7.15798,4.851755 2.43433,0 4.17585,-0.588498 5.16655,-1.691143 1.06209,-1.102646 1.38339,-2.646006 0.89474,-4.704086 z m 16.21254,-37.487308 10.9891,53.070179 H 183.69316 L 172.7063,24.678042 h 14.31483"
         style="fill:#ffffff;fill-opacity:1;fill-rule:evenodd;stroke:none;stroke-width:0.11305256"
         id="path20"
         inkscape:connector-curvature="0" /></g><path
       inkscape:connector-curvature="0"
       id="path22"
       style="fill:none;stroke:#ffffff;stroke-width:0.64092892;stroke-linecap:butt;stroke-linejoin:miter;stroke-miterlimit:22.92560005;stroke-dasharray:none;stroke-opacity:1"
       d="M -10.452374,110.27895 H 235.25489 V -7.6973557 H -10.452374 Z" /></g></svg>